<?xml version="1.0" standalone="no"?>
<!DOCTYPE svg PUBLIC "-//W3C//DTD SVG 20010904//EN"
 "http://www.w3.org/TR/2001/REC-SVG-20010904/DTD/svg10.dtd">
<svg version="1.0" xmlns="http://www.w3.org/2000/svg"
 width="1280.000000pt" height="1280.000000pt" viewBox="0 0 1280.000000 1280.000000"
 preserveAspectRatio="xMidYMid meet">

<g transform="translate(0.000000,1280.000000) scale(0.100000,-0.100000)"
fill="#000000" stroke="none">
<path d="M6315 12794 c-55 -9 -129 -36 -195 -71 -57 -31 -419 -389 -3036
-3007 -3203 -3202 -3009 -3002 -3060 -3156 -25 -76 -25 -244 0 -320 51 -154
-144 47 3065 -3161 3203 -3203 2998 -3004 3151 -3055 76 -25 244 -25 320 0
153 51 -52 -148 3151 3055 3209 3208 3014 3007 3065 3161 25 76 25 244 0 320
-51 154 143 -46 -3060 3156 -3139 3139 -3002 3006 -3143 3055 -57 19 -198 32
-258 23z m177 -105 c29 -6 80 -24 113 -40 54 -25 342 -310 3035 -3003 1960
-1960 2984 -2991 3001 -3022 73 -127 76 -285 9 -429 -26 -54 -307 -338 -3003
-3035 -2687 -2687 -2981 -2978 -3038 -3007 -133 -67 -285 -67 -418 0 -57 29
-350 318 -3038 3007 -2701 2701 -2977 2981 -3003 3036 -63 131 -63 278 0 408
26 55 308 340 2997 3028 1632 1632 2980 2977 2995 2988 84 64 232 94 350 69z"/>
<path d="M4040 9608 c-98 -50 -115 -133 -54 -274 44 -102 42 -132 -6 -157 -30
-15 -59 -17 -205 -15 -163 2 -172 2 -220 -22 -45 -22 -52 -31 -70 -80 -18 -51
-20 -83 -21 -460 -1 -423 -8 -508 -45 -569 -25 -42 -52 -40 -145 9 -93 49
-142 49 -211 0 -84 -61 -89 -223 -9 -292 70 -61 136 -62 230 -4 89 54 144 47
166 -20 7 -22 12 -95 11 -191 -2 -212 14 -260 101 -304 33 -17 58 -20 145 -20
58 0 108 3 111 6 3 2 -3 38 -12 79 -27 114 -6 194 77 283 131 142 360 142 502
-1 41 -41 55 -63 68 -112 21 -75 22 -153 2 -201 -8 -19 -15 -40 -15 -45 0 -6
49 -9 128 -7 139 4 174 16 216 72 19 26 21 45 26 220 4 165 8 198 25 232 29
58 67 59 169 6 88 -47 130 -51 186 -20 59 33 90 90 90 166 0 70 -13 104 -57
144 -69 64 -130 67 -226 9 -79 -48 -116 -51 -151 -14 -22 24 -25 38 -31 143
-3 64 -7 120 -9 124 -2 9 -219 -202 -329 -321 -93 -101 -155 -123 -235 -85
-42 20 -491 462 -521 513 -24 41 -27 87 -7 135 9 21 131 151 310 331 163 164
295 298 294 299 -84 45 -89 70 -39 170 47 95 53 118 41 168 -24 107 -169 161
-280 105z"/>
<path d="M5575 9609 c-77 -29 -125 -91 -125 -161 0 -42 30 -119 43 -111 6 3 7
1 3 -6 -9 -15 3 -53 15 -46 5 3 6 0 3 -8 -3 -8 2 -22 11 -31 15 -15 15 -18 -5
-47 -13 -17 -33 -35 -47 -40 -13 -5 -104 -9 -201 -9 -162 -1 -181 -3 -221 -23
-25 -12 -53 -33 -63 -47 -30 -41 -37 -168 -32 -532 3 -183 5 -336 4 -340 0 -3
21 0 47 8 79 24 169 18 238 -14 120 -57 174 -141 182 -285 4 -79 2 -100 -17
-151 -13 -33 -40 -78 -61 -101 -21 -23 -35 -46 -31 -50 4 -5 1 -5 -5 -1 -7 4
-13 2 -13 -3 0 -6 -6 -10 -12 -9 -7 2 -12 -2 -11 -7 1 -6 -6 -11 -15 -12 -9
-1 -43 -9 -75 -19 -59 -18 -84 -16 -204 13 -17 4 -21 1 -19 -14 2 -10 -1 -24
-7 -31 -12 -15 -2 -163 14 -213 20 -60 104 -116 140 -93 8 5 9 3 4 -6 -7 -11
19 -12 142 -7 161 7 213 -1 250 -35 32 -30 32 -56 1 -115 -15 -29 -25 -60 -22
-70 5 -14 4 -15 -4 -4 -11 15 -27 -2 -17 -19 3 -5 1 -10 -4 -10 -6 0 -11 -17
-11 -39 0 -99 77 -171 182 -171 79 0 151 38 172 91 28 68 21 118 -24 188 -47
72 -52 116 -17 148 35 33 62 37 242 38 209 1 234 9 285 95 12 20 15 63 15 210
0 207 7 236 65 260 28 11 37 10 83 -11 29 -13 54 -27 55 -32 6 -12 72 -37 100
-37 29 0 105 34 122 55 19 22 50 118 50 152 0 39 -31 104 -46 99 -6 -3 -11 3
-10 12 1 10 -6 16 -16 16 -10 -1 -15 2 -12 7 7 11 -57 39 -88 39 -33 -1 -111
-38 -103 -50 4 -6 -1 -7 -11 -3 -10 4 -15 2 -11 -3 6 -11 -6 -14 -80 -18 -29
-1 -50 1 -47 5 3 5 -3 20 -12 34 l-17 26 -146 -150 c-130 -133 -152 -152 -199
-167 -60 -19 -98 -14 -151 18 -20 13 -40 22 -44 20 -5 -1 -6 2 -2 7 3 6 -5 15
-17 22 -13 7 -26 17 -30 23 -9 14 -141 -121 -132 -135 3 -5 2 -8 -3 -7 -11 4
-75 -23 -89 -37 -16 -15 -40 -65 -48 -99 -7 -28 11 -103 22 -92 3 3 11 -3 19
-14 26 -38 112 -24 325 53 53 19 95 37 92 40 -3 3 4 3 17 0 12 -4 20 -2 17 3
-4 5 6 10 20 10 15 1 63 5 107 9 95 8 127 -1 155 -47 25 -41 25 -64 0 -112
-10 -22 -17 -43 -14 -48 3 -5 2 -7 -3 -6 -14 5 -73 -45 -66 -55 3 -6 1 -7 -5
-3 -6 4 -22 0 -34 -8 -13 -8 -41 -17 -63 -21 l-40 -6 29 23 c69 56 125 116
131 141 9 33 -15 74 -51 87 -49 19 -222 1 -209 -21 4 -5 0 -6 -8 -3 -8 3 -60
-15 -116 -40 -56 -25 -106 -46 -112 -46 -5 0 -7 -4 -4 -10 3 -5 0 -7 -9 -4 -8
3 -31 1 -51 -6 -34 -11 -188 -30 -180 -22 2 2 -10 16 -27 30 -28 24 -30 29
-26 81 3 39 17 81 46 141 23 47 42 99 42 116 0 21 12 44 38 74 20 24 30 40 22
35 -9 -5 -12 -5 -7 1 5 5 12 9 15 9 15 0 32 17 26 26 -3 5 0 8 8 7 7 -2 12 3
10 10 -1 6 3 11 10 10 7 -2 12 4 13 12 0 8 5 15 10 15 18 0 36 16 29 26 -3 5
0 8 8 7 7 -2 12 3 10 10 -1 8 1 11 6 8 10 -6 88 71 85 82 -2 4 3 7 10 7 6 1
11 7 9 15 -2 8 0 12 4 7 9 -9 124 102 124 120 0 6 5 15 12 19 7 5 8 2 3 -7 -4
-8 6 -1 23 15 17 16 29 33 26 38 -3 5 0 7 8 6 7 -2 12 4 10 12 -2 8 0 12 4 8
9 -10 175 152 168 164 -3 5 0 7 8 6 7 -2 12 3 10 10 -1 8 2 11 7 8 11 -7 127
121 123 135 -1 6 2 8 7 4 18 -10 31 32 31 97 0 221 -67 410 -140 393 -20 -4
-22 -3 -10 5 12 9 10 11 -12 7 -15 -2 -25 0 -22 4 3 5 -70 9 -163 9 -144 0
-174 3 -210 20 -37 16 -43 23 -43 49 0 16 9 50 20 76 11 26 17 52 13 57 -3 7
-1 8 6 4 18 -12 44 61 38 110 -9 80 -76 141 -164 149 -26 3 -61 0 -78 -6z
m-298 -475 c-3 -3 -12 -4 -19 -1 -8 3 -5 6 6 6 11 1 17 -2 13 -5z m-274 -69
c-3 -9 -8 -14 -10 -11 -3 3 -2 9 2 15 9 16 15 13 8 -4z m770 -229 c18 -7 40
-23 51 -34 10 -12 23 -19 28 -16 4 3 7 0 6 -8 -2 -7 3 -12 10 -10 8 1 11 -2 8
-7 -6 -9 77 -91 92 -91 4 0 31 25 59 55 29 30 57 55 63 55 6 0 8 5 4 11 -4 8
0 8 15 0 11 -7 21 -15 21 -19 0 -12 84 -97 93 -94 5 1 6 -2 2 -8 -3 -5 -2 -10
4 -10 5 0 13 -9 16 -20 4 -11 12 -18 18 -14 7 3 4 -1 -5 -9 -10 -8 -16 -17
-13 -20 3 -4 2 -5 -2 -2 -10 8 -43 -26 -36 -38 3 -6 1 -7 -6 -3 -16 10 -43
-13 -37 -31 4 -8 1 -11 -5 -8 -13 8 -51 -24 -43 -37 3 -4 0 -7 -8 -6 -7 2 -12
-4 -10 -12 2 -8 0 -11 -4 -7 -10 9 -155 -133 -148 -145 3 -5 0 -7 -8 -6 -7 2
-12 -3 -10 -10 1 -8 -2 -11 -7 -8 -8 6 -50 -35 -82 -81 -8 -11 -25 -23 -39
-27 -15 -5 -20 -4 -12 2 9 6 1 18 -30 43 -24 19 -46 33 -51 31 -4 -1 -6 2 -5
6 4 13 -49 72 -57 64 -5 -4 0 8 11 26 10 19 38 49 62 69 23 19 40 39 36 44 -3
5 0 8 6 7 7 -2 17 5 23 14 9 14 4 25 -33 62 -42 43 -70 61 -54 34 4 -7 3 -8
-5 -4 -6 4 -9 11 -7 15 8 13 -48 59 -67 56 -14 -3 -16 0 -7 10 8 9 7 20 -1 39
-21 45 2 55 51 22 22 -15 45 -24 50 -21 5 3 8 0 5 -7 -3 -7 24 -42 60 -78 l65
-64 27 20 c34 25 41 59 17 85 -19 21 -40 26 -28 7 4 -7 3 -8 -5 -4 -6 4 -9 11
-6 16 3 5 -20 30 -50 56 -50 44 -80 95 -68 117 6 10 9 9 46 -7z m197 -153 c0
-7 -58 36 -66 49 -4 7 9 -1 29 -16 20 -16 37 -30 37 -33z m-205 -31 c-3 -3 0
-11 6 -19 17 -20 5 -16 -14 5 -15 16 -15 19 -2 19 8 0 13 -3 10 -5z m525 -36
c0 -2 -8 -10 -17 -17 -16 -13 -17 -12 -4 4 13 16 21 21 21 13z m-85 -95 c-3
-6 -11 -11 -17 -11 -6 0 -6 6 2 15 14 17 26 13 15 -4z m-105 -104 c0 -2 -13
-16 -29 -31 -21 -20 -31 -24 -36 -15 -5 7 -4 10 2 6 6 -4 21 5 33 18 22 23 30
29 30 22z m-590 -581 c0 -2 -8 -10 -17 -17 -16 -13 -17 -12 -4 4 13 16 21 21
21 13z m220 -346 c-8 -5 -19 -10 -25 -10 -5 0 -3 5 5 10 8 5 20 10 25 10 6 0
3 -5 -5 -10z m393 -65 c-3 -9 -8 -14 -10 -11 -3 3 -2 9 2 15 9 16 15 13 8 -4z
m27 -15 c0 -5 -5 -10 -11 -10 -5 0 -7 5 -4 10 3 6 8 10 11 10 2 0 4 -4 4 -10z
m-350 -435 c0 -5 -5 -3 -10 5 -5 8 -10 20 -10 25 0 6 5 3 10 -5 5 -8 10 -19
10 -25z m-317 -115 c3 -11 3 -20 1 -20 -2 0 -8 9 -14 20 -6 11 -7 20 -2 20 6
0 12 -9 15 -20z"/>
<path d="M4114 8838 c-229 -228 -325 -330 -330 -351 -4 -21 1 -38 20 -65 37
-54 195 -215 316 -324 150 -133 169 -148 194 -148 17 0 89 66 260 234 224 222
236 236 236 272 l0 37 -57 -54 c-32 -29 -83 -79 -113 -109 -31 -31 -72 -64
-93 -73 -35 -17 -39 -17 -74 0 -39 18 -313 287 -364 357 -21 28 -29 51 -29 79
0 39 7 47 208 249 114 115 209 211 211 214 2 2 -11 4 -29 4 -30 0 -62 -28
-356 -322z m-136 -343 l45 -45 -23 -25 c-13 -14 -26 -25 -30 -25 -3 0 -27 19
-53 41 l-47 42 21 28 c11 16 25 29 31 29 5 0 31 -20 56 -45z m255 -93 c62 -62
41 -185 -35 -211 -98 -35 -184 25 -181 127 3 104 142 158 216 84z m126 -331
c-12 -17 -26 -31 -30 -31 -3 0 -25 21 -49 46 l-42 46 28 29 28 30 44 -45 44
-44 -23 -31z"/>
<path d="M7338 8087 c-64 -149 -178 -414 -253 -587 -75 -173 -145 -336 -156
-363 l-19 -48 151 3 151 3 52 130 52 130 251 3 250 2 20 -52 c12 -29 36 -90
54 -135 l34 -83 153 0 c142 0 154 1 149 18 -3 9 -46 112 -97 227 -139 318
-389 892 -419 962 l-26 63 -115 0 -115 0 -117 -273z m312 -310 c38 -99 70
-181 70 -183 0 -2 -70 -4 -155 -4 -98 0 -155 4 -155 10 0 9 29 85 142 370 12
30 2 51 98 -193z"/>
<path d="M8370 7726 l0 -636 140 0 140 0 0 250 0 250 163 0 c226 0 316 24 407
106 22 20 52 61 67 92 24 50 28 71 31 167 3 95 1 118 -18 169 -25 67 -83 135
-145 171 -83 49 -146 57 -477 62 l-308 5 0 -636z m562 384 c108 -32 142 -166
61 -242 -43 -39 -85 -48 -222 -48 l-126 0 3 156 3 157 122 -6 c67 -3 139 -10
159 -17z"/>
<path d="M9510 7725 l0 -635 135 0 135 0 2 248 3 247 190 6 c206 7 259 18 343
74 46 30 104 110 123 170 17 51 17 217 1 272 -30 99 -121 188 -227 218 -99 29
-171 35 -437 35 l-268 0 0 -635z m571 378 c64 -29 82 -54 86 -121 5 -72 -19
-115 -80 -142 -34 -16 -66 -20 -174 -20 l-133 0 0 148 c0 82 3 152 8 157 4 4
61 5 128 2 90 -3 132 -10 165 -24z"/>
<path d="M4080 7523 c-37 -13 -90 -58 -104 -88 -9 -18 -16 -51 -16 -73 0 -44
34 -146 58 -175 9 -9 15 -31 15 -49 0 -62 -54 -78 -267 -78 -195 0 -230 -12
-268 -88 -21 -44 -23 -60 -24 -227 0 -147 -4 -186 -17 -212 -28 -54 -79 -53
-165 1 -92 58 -176 53 -234 -12 -45 -52 -61 -98 -55 -154 8 -64 30 -103 79
-138 60 -44 113 -41 211 10 85 45 118 49 146 19 30 -33 36 -114 33 -519 -3
-413 6 -537 43 -627 l24 -58 26 60 c36 81 62 187 81 327 14 109 13 139 -6 425
-11 169 -22 317 -25 329 -4 18 7 26 73 58 43 20 83 36 89 36 7 0 22 21 33 48
49 111 120 135 190 64 46 -46 63 -100 62 -203 -1 -97 -30 -179 -76 -214 -36
-28 -57 -30 -104 -14 -44 15 -71 65 -86 156 -13 72 -14 74 -15 30 -1 -44 -3
-48 -31 -53 -16 -4 -30 -7 -31 -8 0 0 -4 -140 -9 -311 -9 -343 -20 -416 -84
-602 -23 -65 -31 -101 -25 -108 6 -6 71 -9 165 -7 165 2 222 -6 255 -39 28
-28 24 -61 -21 -145 -67 -127 -48 -209 64 -270 47 -26 154 -16 200 19 42 32
63 69 72 124 6 41 -12 91 -58 155 -41 59 -17 130 50 148 21 5 107 10 190 9
169 0 223 10 262 50 48 47 54 107 55 496 0 330 -1 352 -20 390 l-20 40 -90 1
c-120 0 -180 21 -242 83 -27 26 -61 74 -77 106 -26 51 -30 68 -29 139 3 196
118 329 299 344 42 3 77 -1 110 -12 26 -9 52 -16 57 -16 5 0 8 54 6 128 -4
139 -16 174 -72 216 -26 19 -42 21 -190 22 -191 1 -247 8 -281 35 -36 28 -34
78 5 149 43 79 53 131 34 178 -20 47 -52 81 -92 98 -32 14 -123 18 -153 7z
m558 -1634 c42 -14 57 -54 47 -127 -11 -86 -9 -102 24 -172 17 -36 31 -72 31
-81 0 -17 -89 -107 -225 -229 -38 -34 -120 -109 -182 -167 -101 -94 -153 -129
-153 -102 0 11 94 117 274 308 144 153 143 153 117 190 l-21 30 28 33 c58 69
54 71 -14 7 -82 -79 -99 -89 -154 -89 -33 0 -48 6 -72 30 -28 28 -30 35 -26
83 11 136 155 292 274 296 12 1 35 -4 52 -10z"/>
<path d="M5999 7063 l-37 -4 14 -57 c17 -74 17 -128 -1 -187 -8 -27 -12 -52
-9 -57 3 -5 1 -7 -4 -6 -6 2 -26 -18 -47 -45 -20 -26 -31 -46 -24 -45 6 2 13
-3 15 -10 1 -7 0 -8 -3 -2 -3 7 -10 7 -21 -2 -12 -10 -14 -10 -8 0 11 18 1 15
-40 -13 -49 -33 -104 -47 -189 -47 -133 1 -227 58 -302 180 -34 57 -43 159
-19 228 9 26 16 51 16 56 0 12 -194 10 -246 -3 -24 -6 -44 -15 -44 -19 0 -4
-9 -10 -19 -13 -11 -2 -27 -20 -37 -38 -16 -28 -20 -67 -24 -234 -3 -110 -9
-207 -14 -216 -17 -37 -83 -48 -140 -24 -15 7 -17 5 -11 -6 7 -12 6 -12 -11 1
-29 22 -30 24 -10 16 41 -15 -6 23 -50 40 -139 53 -262 -78 -222 -236 4 -14 7
-28 7 -31 1 -3 11 -17 24 -30 72 -77 136 -83 249 -20 110 60 118 54 154 -129
13 -68 18 -172 23 -510 5 -385 8 -428 24 -458 11 -21 24 -32 32 -28 8 3 12 0
9 -8 -3 -7 11 -19 31 -29 29 -14 68 -17 208 -18 189 -1 203 -3 242 -37 24 -21
26 -29 21 -65 -9 -66 -12 -76 -21 -84 -4 -5 -5 -2 0 6 6 10 4 12 -4 7 -7 -4
-9 -17 -6 -29 5 -17 4 -19 -4 -7 -8 12 -13 8 -26 -22 -38 -92 -6 -176 85 -223
45 -23 160 -16 198 12 48 36 65 69 70 134 3 44 1 60 -7 55 -7 -5 -9 -1 -5 9 6
15 -15 55 -43 83 -13 14 -18 88 -7 117 14 35 69 45 251 45 235 0 265 14 290
133 15 75 17 161 3 152 -6 -4 -8 -11 -4 -16 3 -5 0 -8 -8 -7 -7 2 -12 -3 -10
-10 1 -8 -2 -11 -7 -8 -5 4 -21 -8 -36 -26 -15 -18 -24 -26 -19 -18 4 8 -5 4
-19 -9 -15 -13 -24 -27 -22 -32 3 -4 0 -11 -6 -15 -8 -5 -9 -3 -4 7 7 12 6 12
-7 1 -9 -7 -15 -22 -13 -34 4 -17 2 -18 -12 -7 -13 11 -18 10 -35 -11 -11 -14
-23 -24 -27 -24 -3 1 -16 -2 -29 -7 -41 -16 -70 1 -143 82 -39 43 -75 76 -80
73 -5 -3 -8 0 -7 7 2 7 -2 13 -9 14 -7 0 -18 7 -25 15 -11 12 -11 12 5 1 28
-21 20 3 -11 32 -20 19 -31 24 -39 16 -8 -8 -13 -8 -18 0 -3 6 -1 10 6 9 6 -2
14 3 17 11 3 10 0 12 -12 8 -11 -4 -15 -3 -10 4 8 13 -65 91 -78 83 -5 -3 -7
0 -6 8 2 7 -3 12 -10 10 -8 -1 -11 2 -7 8 8 13 -223 272 -236 264 -5 -3 -8 -2
-7 3 4 13 -49 73 -57 65 -5 -4 -5 -2 -2 4 4 6 0 20 -8 30 -32 43 -5 114 59
153 l36 23 51 -56 51 -56 98 0 c93 0 98 1 103 23 11 45 18 172 10 182 -17 21
-66 59 -58 45 5 -9 4 -12 -1 -7 -5 5 -9 16 -9 25 0 9 -5 16 -10 15 -6 -1 -11
8 -12 20 -2 32 60 77 106 77 41 0 71 -18 114 -67 16 -18 33 -31 37 -28 5 3 12
0 16 -6 4 -8 3 -9 -4 -5 -7 4 -12 3 -12 -2 0 -11 63 -68 72 -65 4 2 5 -3 2
-11 -3 -7 11 -27 30 -44 20 -17 36 -35 36 -40 0 -15 56 -62 65 -55 4 5 5 3 1
-4 -7 -12 50 -84 64 -80 4 1 9 -2 10 -8 3 -18 43 -54 53 -48 6 3 7 1 3 -5 -9
-14 63 -94 77 -85 5 3 7 1 3 -5 -3 -6 -2 -13 3 -16 5 -3 11 82 14 197 5 231
21 301 71 325 29 15 25 16 169 -60 28 -15 47 -18 74 -13 28 5 33 9 22 16 -10
7 -6 8 13 3 23 -5 33 0 58 26 17 18 29 39 26 47 -3 8 -2 11 3 8 5 -3 15 20 22
50 16 70 1 125 -47 173 -26 26 -39 32 -56 27 -16 -4 -19 -3 -10 3 11 7 10 10
-3 16 -37 14 -120 2 -108 -17 3 -6 1 -7 -5 -3 -22 13 -37 -6 -17 -21 11 -7 14
-13 9 -13 -6 0 -16 6 -22 12 -10 10 -15 10 -22 -2 -5 -8 -10 -11 -10 -7 0 5
-10 1 -22 -7 -30 -21 -92 -21 -109 1 -11 12 -13 49 -11 160 3 126 0 154 -19
219 -14 47 -27 73 -34 70 -6 -2 -12 2 -12 10 0 7 5 11 10 7 5 -3 4 4 -2 15
-18 34 -74 61 -147 72 -69 10 -79 10 -145 3z m-1012 -445 c-3 -8 -6 -5 -6 6
-1 11 2 17 5 13 3 -3 4 -12 1 -19z m1791 -233 c-3 -3 -9 2 -12 12 -6 14 -5 15
5 6 7 -7 10 -15 7 -18z m-1161 -81 c-3 -3 -12 -4 -19 -1 -8 3 -5 6 6 6 11 1
17 -2 13 -5z m-80 -10 c-10 -10 42 -46 54 -38 8 4 9 3 5 -4 -4 -7 14 -34 43
-65 63 -67 70 -86 56 -167 l-10 -65 -50 1 c-27 1 -58 2 -67 3 -9 1 -30 13 -47
27 -17 14 -34 23 -39 20 -4 -2 -14 0 -22 6 -12 8 -11 9 4 4 16 -5 17 -4 6 9
-7 8 -16 12 -21 9 -5 -3 -6 1 -4 8 3 8 -8 27 -25 43 -16 16 -30 34 -30 40 0 7
31 42 70 79 38 37 69 70 69 74 -2 13 1 22 8 22 3 0 3 -3 0 -6z m377 -40 c3 -8
2 -12 -4 -9 -6 3 -10 10 -10 16 0 14 7 11 14 -7z m-1187 -30 c-3 -3 -12 -4
-19 -1 -8 3 -5 6 6 6 11 1 17 -2 13 -5z m1334 -157 c-6 -8 -7 -18 -3 -22 4 -5
1 -5 -6 -1 -10 6 -10 11 -1 22 6 8 14 14 16 14 3 0 0 -6 -6 -13z m-628 -4 c3
-5 -5 -8 -18 -8 -13 0 -21 3 -18 8 2 4 10 7 18 7 8 0 16 -3 18 -7z m74 -88 c0
-8 -4 -12 -9 -9 -5 3 -6 10 -3 15 9 13 12 11 12 -6z m624 -12 c13 -16 12 -17
-3 -4 -10 7 -18 15 -18 17 0 8 8 3 21 -13z m174 -144 c11 -16 1 -19 -13 -3 -7
8 -8 14 -3 14 5 0 13 -5 16 -11z m-14 -26 c13 -16 12 -17 -3 -4 -10 7 -18 15
-18 17 0 8 8 3 21 -13z m-411 -567 c0 -2 -8 -10 -17 -17 -16 -13 -17 -12 -4 4
13 16 21 21 21 13z m75 -84 c-3 -3 -11 0 -18 7 -9 10 -8 11 6 5 10 -3 15 -9
12 -12z m185 4 c0 -2 -7 -7 -16 -10 -8 -3 -12 -2 -9 4 6 10 25 14 25 6z
m-1023 -62 c-3 -3 -12 -4 -19 -1 -8 3 -5 6 6 6 11 1 17 -2 13 -5z m316 -11
c-7 -2 -19 -2 -25 0 -7 3 -2 5 12 5 14 0 19 -2 13 -5z m44 -345 c-3 -7 -5 -2
-5 12 0 14 2 19 5 13 2 -7 2 -19 0 -25z"/>
<path d="M8022 6704 c-18 -24 -30 -49 -27 -54 4 -6 1 -9 -7 -8 -7 2 -12 -3
-10 -9 1 -7 -2 -13 -6 -13 -5 0 -30 -33 -57 -72 -26 -40 -56 -85 -67 -101 -10
-15 -16 -32 -13 -37 3 -5 0 -12 -6 -16 -8 -5 -9 -3 -4 6 6 9 4 11 -4 6 -7 -5
-10 -15 -7 -23 3 -8 2 -11 -3 -8 -12 7 -42 -35 -34 -48 3 -6 1 -7 -5 -3 -15 9
-127 -220 -147 -299 -18 -69 -19 -122 -5 -196 14 -77 30 -114 42 -97 7 9 8 8
4 -5 -7 -21 11 -60 23 -53 5 3 16 -3 26 -14 10 -11 13 -20 8 -20 -6 0 -14 7
-17 16 -4 9 -9 14 -13 10 -9 -9 28 -47 40 -39 5 3 8 0 5 -8 -6 -19 22 -48 40
-41 9 3 13 1 9 -5 -9 -14 29 -47 44 -37 8 4 10 3 5 -5 -8 -12 52 -42 124 -61
47 -13 169 -15 238 -4 42 7 44 8 22 16 -20 6 -18 7 11 4 27 -3 51 4 95 28 32
18 59 39 59 46 0 7 8 14 18 16 9 1 33 20 52 41 34 38 46 61 23 47 -7 -4 -8 -3
-4 5 4 6 11 9 16 6 12 -8 46 52 64 114 18 61 21 184 5 250 -17 76 -58 149
-120 211 -48 49 -64 60 -82 55 -15 -4 -18 -3 -9 3 19 13 -47 38 -127 47 -60 7
-65 6 -84 -16 -13 -17 -17 -19 -13 -6 3 9 3 17 -1 17 -3 0 -12 -8 -19 -17 -13
-17 -14 -17 -8 0 4 10 1 17 -7 17 -8 0 -6 5 6 13 12 9 15 19 10 28 -5 8 -5 11
0 7 4 -4 23 14 41 40 18 26 38 53 44 60 6 7 8 17 5 22 -4 6 -1 9 6 8 6 -2 14
3 17 11 2 8 0 11 -6 7 -6 -3 -13 -2 -16 3 -3 4 3 8 14 7 13 -1 41 28 89 93 39
52 71 96 71 98 0 2 -71 3 -157 3 l-158 -1 -33 -45z m4 -32 c-17 -16 -18 -16
-5 5 7 12 15 20 18 17 3 -2 -3 -12 -13 -22z m172 -586 c12 -10 26 -15 33 -10
7 4 10 3 6 -3 -4 -6 0 -17 9 -24 9 -7 21 -25 27 -39 12 -28 26 -180 16 -174
-9 5 -20 -26 -13 -37 3 -5 0 -8 -8 -7 -7 2 -12 -5 -12 -14 1 -10 -3 -16 -10
-15 -6 1 -10 -5 -8 -13 2 -8 0 -12 -3 -8 -4 4 -26 -2 -48 -13 -32 -17 -54 -20
-112 -17 -86 4 -127 30 -164 102 -19 40 -23 59 -19 117 3 66 6 71 48 115 58
60 70 64 161 61 58 -1 82 -7 97 -21z m-321 -238 c-3 -8 -6 -5 -6 6 -1 11 2 17
5 13 3 -3 4 -12 1 -19z m473 -312 c0 -2 -7 -7 -16 -10 -8 -3 -12 -2 -9 4 6 10
25 14 25 6z"/>
<path d="M9127 6732 c-10 -10 -14 -21 -11 -25 3 -3 1 -14 -6 -24 -10 -16 -11
-16 -6 0 9 29 -1 19 -43 -44 -23 -34 -38 -66 -34 -73 3 -6 3 -8 -2 -4 -9 8
-20 -5 -104 -129 -35 -50 -60 -96 -57 -102 4 -5 1 -13 -5 -17 -8 -4 -9 -3 -5
4 4 7 5 12 3 12 -11 0 -47 -73 -41 -82 4 -7 2 -8 -5 -4 -9 6 -39 -44 -56 -94
-1 -3 -9 -21 -18 -41 -30 -67 -40 -127 -34 -217 6 -99 23 -166 39 -156 6 4 8
3 4 -4 -17 -28 73 -139 162 -199 83 -56 123 -67 255 -70 100 -2 126 1 175 19
73 27 117 52 117 66 0 5 4 14 9 19 5 5 6 3 2 -4 -16 -28 12 -10 57 35 48 49
65 80 25 46 l-23 -19 19 22 c10 12 23 21 30 20 19 -3 65 106 76 181 16 98 -13
284 -41 267 -4 -3 -5 3 -3 12 3 10 -2 27 -11 38 -9 11 -14 15 -11 9 3 -6 -1
-11 -9 -11 -11 0 -12 4 -4 13 13 16 2 37 -13 28 -7 -4 -8 -2 -4 4 4 7 2 12 -5
12 -7 0 -10 3 -7 6 8 7 -25 42 -34 37 -5 -2 -8 1 -8 7 0 6 -5 8 -10 5 -6 -4
-9 -1 -8 7 2 7 -5 13 -14 13 -9 0 -20 4 -25 9 -5 5 -2 6 7 1 10 -5 12 -5 5 2
-35 35 -180 59 -247 40 -17 -4 -28 -3 -28 3 0 9 72 119 111 169 10 13 16 28
12 34 -3 6 -1 7 5 3 7 -4 12 -3 12 3 0 5 11 23 25 39 14 17 24 36 23 43 -2 7
2 13 7 14 20 1 36 17 31 31 -3 8 -1 13 5 11 6 -1 16 7 22 18 7 11 17 23 22 27
6 4 -62 8 -151 8 -143 0 -163 -2 -177 -18z m113 -623 c-12 -8 -9 -10 12 -6 15
2 25 1 23 -3 -3 -4 11 -18 30 -31 19 -13 35 -28 35 -32 0 -5 5 -5 12 -1 6 4 8
3 5 -3 -3 -5 0 -27 8 -49 37 -102 -9 -224 -98 -259 -41 -16 -129 -22 -166 -10
-11 3 -31 1 -43 -5 -22 -11 -22 -10 -3 5 19 15 19 16 -5 33 -14 9 -28 17 -32
17 -3 0 -10 4 -15 9 -5 5 -3 6 5 2 17 -10 15 -3 -10 41 -17 28 -23 54 -23 100
0 52 5 68 30 104 41 58 86 83 165 90 36 3 70 6 75 7 6 1 3 -3 -5 -9z"/>
<path d="M11076 6101 c-65 -43 -90 -144 -49 -199 52 -70 109 -81 203 -41 71
30 107 29 137 -5 30 -35 29 -57 -3 -95 -29 -35 -59 -39 -103 -16 -27 13 -30
13 -51 -10 -23 -24 -23 -25 -5 -45 44 -48 140 -50 195 -3 92 77 78 206 -29
260 -48 24 -72 23 -156 -8 -88 -33 -135 -19 -135 40 0 41 31 65 78 59 31 -5
43 -1 60 17 28 29 28 31 -8 50 -40 21 -99 19 -134 -4z"/>
<path d="M1587 6069 c-81 -19 -146 -73 -183 -154 -71 -150 25 -324 194 -351
l43 -7 -23 -24 -22 -24 27 -27 27 -27 175 175 176 176 -29 27 c-28 27 -28 27
-49 8 -25 -24 -33 -18 -33 23 0 78 -84 174 -174 201 -55 17 -73 17 -129 4z
m136 -93 c137 -58 130 -266 -11 -328 -137 -61 -281 59 -242 201 12 46 50 95
95 122 36 23 112 25 158 5z"/>
<path d="M10830 5811 c-125 -41 -199 -147 -187 -271 8 -90 54 -161 142 -215
46 -28 160 -33 216 -8 108 48 165 139 156 249 -6 84 -13 92 -47 59 -23 -22
-28 -37 -32 -86 -5 -66 -24 -100 -78 -136 -40 -28 -125 -31 -172 -7 l-31 16
152 152 153 153 -33 27 c-70 60 -174 89 -239 67z m111 -83 c22 -6 39 -16 39
-22 0 -11 -220 -236 -231 -236 -11 0 -29 60 -29 96 0 66 44 132 105 160 37 17
67 17 116 2z"/>
<path d="M1999 5641 c-70 -22 -139 -83 -171 -151 -74 -161 48 -360 220 -360
45 0 122 18 122 29 0 3 -13 18 -28 33 -25 24 -32 27 -61 18 -48 -14 -86 -2
-135 41 -49 44 -68 95 -57 156 10 52 23 74 70 116 73 66 178 61 244 -12 38
-42 53 -92 44 -140 -5 -22 0 -34 23 -56 34 -32 33 -32 49 14 49 148 -83 322
-244 320 -27 0 -62 -4 -76 -8z"/>
<path d="M10403 5404 c-69 -34 -123 -112 -123 -178 0 -20 -9 -20 -30 -1 -15
13 -19 12 -43 -13 l-27 -28 175 -174 174 -174 31 29 30 29 -114 116 c-128 130
-148 168 -127 233 24 72 109 109 174 76 12 -6 74 -63 137 -125 l116 -114 29
30 29 30 -109 111 c-160 161 -234 196 -322 153z"/>
<path d="M2391 5249 c-75 -23 -152 -96 -180 -172 -18 -48 -13 -142 10 -192 22
-46 80 -104 133 -132 15 -8 52 -15 81 -15 50 -1 125 17 125 30 0 3 -12 18 -26
33 -23 24 -30 26 -55 17 -62 -21 -148 22 -185 93 -24 47 -18 119 15 170 64
102 186 128 267 57 49 -43 66 -81 63 -139 -2 -42 1 -53 26 -79 l30 -31 12 33
c16 46 16 132 -1 172 -20 47 -82 114 -130 138 -46 24 -136 32 -185 17z"/>
<path d="M10012 5013 c-102 -36 -172 -155 -157 -266 31 -228 306 -318 455
-149 45 50 60 93 60 168 0 188 -178 311 -358 247z m191 -92 c119 -76 118 -249
-3 -311 -175 -89 -358 152 -218 287 65 62 146 71 221 24z"/>
<path d="M2734 4830 c-67 -38 -111 -91 -130 -159 -29 -96 -1 -196 71 -259 70
-62 128 -78 217 -61 l59 12 -33 34 c-25 26 -38 33 -56 28 -68 -17 -174 56
-188 130 -7 40 8 121 27 140 6 6 63 -44 160 -140 l150 -150 34 38 c89 102 86
253 -6 346 -50 51 -102 71 -184 71 -59 0 -78 -5 -121 -30z m201 -63 c30 -15
65 -49 81 -79 23 -44 16 -135 -13 -168 -6 -7 -233 223 -233 237 0 7 17 15 38
18 20 4 42 8 47 10 13 4 55 -5 80 -18z"/>
<path d="M9250 4615 l-24 -26 264 -264 264 -265 28 27 27 26 -104 108 c-106
110 -132 146 -136 190 -4 49 2 67 32 97 72 70 124 51 276 -101 l113 -112 30
30 30 30 -118 116 c-129 128 -177 159 -247 159 -90 0 -175 -80 -175 -165 0
-19 -3 -35 -8 -35 -4 0 -54 47 -112 105 -58 58 -107 105 -111 105 -3 0 -16
-11 -29 -25z"/>
<path d="M3204 4481 c-57 -34 -77 -70 -70 -123 3 -27 14 -69 26 -94 25 -59 25
-85 -1 -118 -15 -19 -30 -26 -55 -26 -63 0 -99 62 -69 119 15 31 15 33 -7 56
-13 14 -26 25 -29 25 -3 0 -15 -17 -27 -39 -56 -99 2 -219 113 -236 79 -12
175 65 175 140 0 18 -12 63 -26 101 -28 75 -26 106 10 129 48 32 113 -25 88
-79 -9 -20 -7 -26 16 -45 14 -11 29 -21 33 -21 4 0 14 16 24 36 55 117 -90
243 -201 175z"/>
<path d="M9235 4231 c-85 -38 -137 -105 -151 -190 -7 -46 -10 -48 -38 -23 -20
17 -22 17 -47 -9 l-26 -27 253 -253 254 -254 27 28 28 27 -98 98 c-53 53 -97
101 -97 105 0 4 15 7 33 7 76 0 173 75 207 160 19 45 17 135 -3 181 -56 132
-222 205 -342 150z m160 -80 c77 -36 115 -93 115 -173 0 -53 -34 -115 -79
-145 -43 -29 -129 -31 -180 -5 -104 52 -134 193 -59 278 56 63 129 79 203 45z"/>
<path d="M3454 4221 c-71 -43 -80 -92 -37 -212 26 -74 26 -78 9 -103 -28 -43
-61 -53 -101 -31 -42 22 -56 71 -32 109 15 23 15 26 -10 52 l-26 28 -18 -23
c-56 -69 -41 -168 35 -223 37 -27 47 -29 99 -26 49 4 62 9 92 38 60 58 66 111
24 204 -27 59 -25 102 6 122 32 21 69 12 91 -22 14 -20 15 -29 5 -51 -11 -23
-9 -29 13 -51 21 -21 27 -23 40 -13 37 31 38 111 2 162 -41 59 -131 77 -192
40z"/>
<path d="M3725 3945 c-5 -2 -22 -6 -37 -9 -14 -3 -49 -24 -78 -47 -201 -159
-81 -477 173 -457 175 14 283 171 234 339 -32 106 -127 180 -232 178 -27 0
-54 -2 -60 -4z m135 -98 c76 -40 110 -139 77 -220 -19 -45 -89 -105 -132 -113
-50 -9 -114 1 -144 23 -52 39 -66 70 -66 143 0 61 3 72 31 107 37 46 105 83
155 83 20 0 55 -10 79 -23z"/>
<path d="M8710 3726 c-6 -9 -15 -39 -19 -67 l-6 -51 -19 21 -19 21 -27 -25
-27 -26 175 -175 176 -174 28 27 28 27 -114 116 c-62 63 -119 125 -125 137
-15 30 -14 69 4 102 13 27 13 30 -14 55 -24 23 -29 25 -41 12z"/>
<path d="M4010 3445 l-174 -174 29 -31 28 -30 116 116 c64 64 126 120 139 125
35 13 80 11 106 -6 21 -14 24 -13 50 14 l28 29 -23 16 c-13 9 -43 16 -68 16
l-44 0 21 23 22 23 -28 27 -28 27 -174 -175z"/>
<path d="M4497 3552 c-33 -34 -33 -43 -4 -70 l23 -22 32 33 32 33 -28 27 -28
27 -27 -28z"/>
<path d="M8426 3424 c-57 -21 -102 -58 -133 -112 -24 -40 -28 -58 -28 -122 0
-65 5 -83 31 -130 111 -197 376 -186 467 19 15 35 18 59 15 118 -4 62 -10 80
-38 121 -60 87 -122 121 -220 121 -30 0 -73 -7 -94 -15z m193 -97 c53 -35 81
-91 81 -160 0 -129 -133 -207 -251 -147 -78 40 -125 145 -100 222 13 38 63 91
101 107 43 18 124 7 169 -22z"/>
<path d="M4200 3255 l-175 -175 28 -27 27 -28 175 175 176 176 -29 27 -28 27
-174 -175z"/>
<path d="M7932 3295 c-11 -14 -26 -42 -32 -61 -10 -29 -9 -41 9 -77 11 -23 41
-62 66 -87 l45 -44 -20 -21 -20 -21 25 -24 c24 -23 25 -23 45 -5 21 19 22 17
170 -130 l149 -149 26 24 c14 13 24 28 23 32 -2 5 -68 74 -147 154 l-144 144
28 30 29 30 -24 25 -24 25 -26 -25 c-14 -14 -30 -25 -36 -25 -5 0 -28 21 -51
47 -44 49 -52 78 -32 115 9 17 7 25 -14 45 l-24 25 -21 -27z"/>
<path d="M4422 3202 c-71 -26 -120 -68 -154 -134 -40 -77 -34 -186 15 -259 32
-48 99 -96 151 -107 41 -9 141 -1 154 13 3 3 -7 18 -23 35 -23 24 -35 29 -75
28 -98 0 -170 71 -170 168 0 37 24 104 37 104 4 0 74 -66 156 -147 l148 -148
25 30 c93 110 97 243 11 341 -73 83 -175 111 -275 76z m139 -73 c97 -33 143
-133 104 -226 l-16 -37 -119 119 c-65 65 -117 122 -114 127 6 9 60 26 90 27
12 1 36 -4 55 -10z"/>
<path d="M4843 2830 c-37 -22 -63 -67 -63 -108 0 -16 11 -60 25 -97 17 -45 24
-78 20 -96 -12 -56 -81 -77 -123 -39 -30 29 -36 62 -18 98 15 30 15 32 -8 56
-13 15 -26 26 -30 26 -4 0 -18 -25 -32 -55 -28 -61 -24 -98 16 -155 65 -91
215 -78 263 23 23 47 21 70 -9 154 -30 82 -27 118 11 135 52 24 115 -38 86
-85 -12 -19 -11 -23 14 -44 32 -28 48 -20 65 33 19 56 -17 132 -77 163 -34 17
-104 13 -140 -9z"/>
<path d="M7670 2692 c-47 -25 -83 -93 -76 -146 6 -50 32 -86 81 -110 38 -19
38 -19 109 3 108 35 140 37 165 12 27 -27 28 -80 1 -109 -23 -24 -65 -29 -104
-10 -23 10 -29 8 -50 -15 l-25 -27 31 -21 c17 -13 52 -24 79 -27 41 -4 56 0
89 22 22 14 49 44 60 66 36 71 22 130 -45 189 -45 39 -85 40 -184 6 -63 -22
-76 -24 -99 -13 -34 17 -42 70 -15 100 14 16 26 19 58 15 33 -5 44 -2 62 17
22 23 22 23 3 41 -29 26 -98 30 -140 7z"/>
<path d="M7306 2544 l-28 -27 58 -58 58 -59 -24 -25 -24 -26 25 -25 25 -25 24
26 24 26 151 -151 151 -151 27 29 27 28 -150 149 -150 149 27 28 c26 27 26 28
8 48 -23 25 -33 25 -62 -2 l-23 -22 -58 57 -57 57 -29 -26z"/>
<path d="M7282 2295 c-7 -14 -12 -45 -12 -67 l0 -41 -23 21 -23 22 -26 -28
-26 -27 174 -174 174 -175 30 29 30 29 -114 116 c-62 63 -119 125 -125 137
-16 32 -13 84 6 105 15 17 15 20 -12 48 -35 36 -39 37 -53 5z"/>
<path d="M5673 2260 c-47 -31 -73 -79 -74 -138 l-2 -51 -62 6 c-74 7 -123 -7
-171 -50 -65 -56 -84 -127 -59 -212 29 -100 138 -160 246 -136 61 14 59 15 59
-28 0 -21 3 -65 6 -97 l6 -59 40 3 40 4 -6 42 c-3 22 -6 72 -7 110 l-2 69 113
49 c63 27 116 51 119 54 3 2 -11 17 -29 33 l-34 28 -84 -38 c-46 -22 -86 -39
-88 -39 -2 0 -4 37 -4 83 l0 82 67 -3 c58 -3 73 0 103 20 42 28 70 80 70 131
0 46 -18 82 -59 122 -27 25 -41 30 -94 32 -50 3 -68 0 -94 -17z m145 -83 c52
-48 3 -137 -76 -137 -60 0 -72 8 -72 45 0 53 19 92 53 109 36 17 62 13 95 -17z
m-220 -294 l3 -112 -46 -7 c-109 -16 -175 26 -175 112 0 41 5 51 39 86 39 39
40 39 108 36 l68 -3 3 -112z"/>
<path d="M7060 2065 c-22 -23 -22 -26 -7 -43 23 -26 21 -32 -10 -32 -37 -1
-111 -35 -146 -68 -52 -49 -72 -99 -72 -182 0 -64 4 -82 27 -121 94 -160 293
-187 419 -57 38 40 54 75 63 138 2 19 5 37 5 40 1 3 12 -7 24 -22 l24 -27 26
27 26 27 -170 173 c-94 94 -175 172 -178 172 -4 0 -18 -11 -31 -25z m128 -178
c89 -62 103 -194 29 -273 -95 -101 -276 -47 -307 92 -17 74 13 146 81 192 48
34 140 28 197 -11z"/>
<path d="M6587 1576 c-87 -32 -154 -111 -164 -197 l-6 -50 -23 22 -22 21 -31
-23 c-17 -12 -31 -23 -31 -24 0 -4 502 -501 508 -503 5 -1 19 9 32 23 l24 26
-97 97 c-53 54 -97 101 -97 105 0 4 15 7 33 7 49 0 129 42 163 86 44 57 54 87
54 160 0 178 -178 308 -343 250z m125 -76 c75 -21 138 -102 138 -177 -1 -164
-197 -237 -312 -116 -34 36 -48 73 -48 129 0 74 51 143 120 162 47 14 59 14
102 2z"/>
</g>
</svg>
